<?xml version="1.0" standalone="no"?><!DOCTYPE svg PUBLIC "-//W3C//DTD SVG 1.1//EN" "http://www.w3.org/Graphics/SVG/1.1/DTD/svg11.dtd"><svg t="1611020225659" class="icon" viewBox="0 0 1024 1024" version="1.1" xmlns="http://www.w3.org/2000/svg" p-id="1968" xmlns:xlink="http://www.w3.org/1999/xlink" width="200" height="200"><defs><style type="text/css"></style></defs><path d="M144.224 587.104a24 24 0 0 0-40.736 20.208l13.424 98.912a24 24 0 0 0 47.568-6.48l-3.856-28.368 150.656 150.656a24 24 0 0 0 33.936-33.936z" fill="#1296db" p-id="1969"></path><path d="M373.296 620.592a24 24 0 0 0-20.544 27.024l3.856 28.384-150.656-150.656a24 24 0 0 0-33.936 33.936l200.992 200.992a24 24 0 0 0 40.752-20.208l-13.44-98.928a24 24 0 0 0-27.024-20.544z" fill="#1296db" p-id="1970"></path><path d="M202.336 436.576a24.016 24.016 0 0 0 1.952-48c-16.544-0.672-70.56-7.216-70.56-63.184 0-60.576 65.728-67.968 73.104-68.608a24 24 0 0 0 21.04-16.672c0.24-0.736 23.808-72.928 86.96-72.928 68.24 0 85.744 53.568 90.128 85.504l0.224 1.6a24.16 24.16 0 0 0 22.4 20.256c10.544 0.624 63.136 6.56 63.136 61.984a50.128 50.128 0 0 1-15.84 40.176c-24.224 21.232-72.304 20.224-88.752 17.968a24 24 0 0 0-6.56 47.552 206.256 206.256 0 0 0 26.896 1.6 154.432 154.432 0 0 0 99.872-30.912 97.824 97.824 0 0 0 32.384-76.416 106 106 0 0 0-89.408-107.312c-9.28-39.264-39.248-110.064-134.512-110.064-76.688 0-113.824 62.64-126.976 91.872-42 8.288-102.128 39.152-102.128 114.336 0.032 84.08 73.328 109.488 116.64 111.248z" fill="#1296db" p-id="1971"></path><path d="M300.144 405.2a21.472 21.472 0 0 0-2.896-3.664 32.336 32.336 0 0 0-3.68-3.056 21.328 21.328 0 0 0-4.144-2.08 22.288 22.288 0 0 0-4.496-1.44 23.888 23.888 0 0 0-21.6 6.576 23.28 23.28 0 0 0-3.04 3.664 22.4 22.4 0 0 0-3.504 8.64 21.92 21.92 0 0 0-0.496 4.64 23.424 23.424 0 0 0 7.04 16.976 25.824 25.824 0 0 0 7.68 5.28 26.272 26.272 0 0 0 9.28 1.744 23.552 23.552 0 0 0 16.96-7.024 24 24 0 0 0 7.04-16.976 22.048 22.048 0 0 0-1.904-9.104 20.992 20.992 0 0 0-2.24-4.176z" fill="#1296db" p-id="1972"></path><path d="M848.864 690.16c-9.264-39.28-39.216-110.064-134.512-110.064-76.688 0-113.824 62.64-126.976 91.872-41.984 8.288-102.112 39.136-102.112 114.32 0 84 73.296 109.392 116.592 111.168a24.016 24.016 0 0 0 1.968-48c-16.56-0.672-70.56-7.216-70.56-63.2 0-60.576 65.712-67.968 73.104-68.608a24 24 0 0 0 21.04-16.672c0.224-0.72 23.792-72.912 86.944-72.912 68.272 0 85.776 53.568 90.128 85.504l0.24 1.6a24 24 0 0 0 22.56 20.272c6.4 0.304 63.008 4.688 63.008 61.984a50.08 50.08 0 0 1-15.84 40.16c-24.24 21.232-72.304 20.24-88.768 17.984a24 24 0 0 0-6.544 47.552 205.952 205.952 0 0 0 26.88 1.6 154.448 154.448 0 0 0 99.888-30.912 97.856 97.856 0 0 0 32.384-76.416 106 106 0 0 0-89.424-107.232z" fill="#1296db" p-id="1973"></path><path d="M675.008 855.76a26.96 26.96 0 0 0-4.48 1.44 25.888 25.888 0 0 0-4.144 2.256 16.896 16.896 0 0 0-3.536 3.024 24 24 0 0 0 0 33.92 22.496 22.496 0 0 0 7.68 5.136 22.896 22.896 0 0 0 9.296 1.76 23.824 23.824 0 0 0 16.96-6.896 22.704 22.704 0 0 0 5.104-7.824 22.288 22.288 0 0 0 1.936-9.12 23.808 23.808 0 0 0-7.04-16.976 24.88 24.88 0 0 0-21.776-6.72z" fill="#1296db" p-id="1974"></path></svg>