<?xml version="1.0" standalone="no"?><!DOCTYPE svg PUBLIC "-//W3C//DTD SVG 1.1//EN" "http://www.w3.org/Graphics/SVG/1.1/DTD/svg11.dtd"><svg t="1611652810850" class="icon" viewBox="0 0 1024 1024" version="1.1" xmlns="http://www.w3.org/2000/svg" p-id="2042" xmlns:xlink="http://www.w3.org/1999/xlink" width="128" height="128"><defs><style type="text/css"></style></defs><path d="M509.3 952.1c-247.3 0-441-189.4-441-431.2 0-244.4 202-450.9 441-450.9 243.2 0 441.1 197.9 441.1 441.1s-197.9 441-441.1 441z m0-832.8c-212.4 0-391.8 183.9-391.8 401.6 0 214.1 172.1 381.9 391.8 381.9 216 0 391.7-175.7 391.7-391.8 0.1-216-175.7-391.7-391.7-391.7z" fill="#53E2E8" p-id="2043"></path><path d="M736.4 617.1c-2 0-3.9-0.2-5.9-0.5l-233.6-42.7c-15.6-2.9-27-16.5-27-32.3V318.1c0-18.2 14.7-32.9 32.9-32.9s32.9 14.7 32.9 32.9v196l206.6 37.7c17.9 3.3 29.7 20.4 26.4 38.3-2.9 15.9-16.7 27-32.3 27z" fill="#53E2E8" p-id="2044"></path></svg>